<svg id="Layer_1" data-name="Layer 1" xmlns="http://www.w3.org/2000/svg" viewBox="0 0 400 300" data-imageid="mind-map-two-color" imageName="Mind Map" class="illustrations_image" style="width: 164px;"><title>#60 mindmap</title><rect x="107.09" y="40.67" width="219.16" height="172.74" fill="#e6e6e6"/><path d="M129.86,151.42s15.33,11.82,10.33,19.57-8,.09-8,13.09-1,29.32-1,29.32H112.51l4.3-61.63Z" opacity="0.08"/><ellipse cx="120.83" cy="255.35" rx="74" ry="13.19" fill="#e6e6e6" opacity="0.45"/><polygon points="95.97 134.43 98.45 141.88 92.56 145.62 90.44 132.71 95.97 134.43" fill="#f4a28c"/><path d="M88.41,125.52a4.64,4.64,0,0,1,7.67-1.29c2.51,2.68,5.53,6.94,2.11,9.25-5.23,3.55-10-3.08-10-3.08A8.42,8.42,0,0,1,88.41,125.52Z" fill="#f4a28c"/><path d="M92.24,130.08s-1.34-1.12-1.95.48,1.76,2.36,2.47,1.55S92.24,130.08,92.24,130.08Z" fill="#f4a28c"/><path d="M87.55,145.69s-21.09,12.77-23.86,42.74a10.39,10.39,0,0,0,7.87,11.11l24.72,6Z" fill="#5252ff" class="target-color"/><path d="M87.55,145.69s-21.09,12.77-23.86,42.74a10.39,10.39,0,0,0,7.87,11.11l24.72,6Z" fill="#fff" opacity="0.2"/><path d="M137.09,157.3c-3.28-8.17-12-17.53-32.42-25.06l-1.41,4.52L126,163.9C130.79,169.58,139.86,164.17,137.09,157.3Z" fill="#5252ff" class="target-color"/><rect x="67.25" y="188.43" width="35.66" height="23.32" transform="translate(-75.79 53.82) rotate(-24.68)" fill="#ffd200"/><path d="M93,128.15s2.79,8-2.07,7.47-2.19-3.92-4.6-7.47-1.14-5.94,2.54-9.05c1.68-1.42,2.81-2.09,3.49-2.84a2.6,2.6,0,0,1,4.37.62C98,119.93,98,124,93,128.15Z" fill="#24285b"/><path d="M82.67,152a17,17,0,0,1,10.64-9.29c9-2.71,26.14-8.39,31.2,0,6.93,11.55-3.73,56.88-3.73,56.88l-30.3,2.35S73.81,171.88,82.67,152Z" fill="#5252ff" class="target-color"/><polygon points="120.78 199.59 116.79 251.68 110.49 251.68 104.86 211.21 90.93 201.94 120.78 199.59" fill="#24285b"/><polygon points="90.93 201.94 82.24 251.68 88.99 251.68 103.58 210.36 90.93 201.94" fill="#24285b"/><path d="M95.93,141.88s-14.17,45.65,26.76,48.68l-1.91,9-30.3,2.35a78.65,78.65,0,0,1-10.23-40.31s.26-11.64,8.46-16.79A18.48,18.48,0,0,1,95.93,141.88Z" opacity="0.08"/><path d="M83.47,251.68l-4.2,3.09a.92.92,0,0,0,.55,1.66h7a.93.93,0,0,0,.93-.92v-3.83Z" fill="#5252ff" class="target-color"/><path d="M116.61,251.68l4,3.09a.93.93,0,0,1-.58,1.66h-5a2.67,2.67,0,0,1-2.67-2.67v-2.08Z" fill="#5252ff" class="target-color"/><line x1="216.17" y1="127.56" x2="173.5" y2="182" fill="none" stroke="#a5a5a5" stroke-miterlimit="10"/><path d="M107.46,150.61c3.05,6.77,8.35,15.24,16.77,19.15A9.46,9.46,0,0,0,137,157.28a21.66,21.66,0,0,0-2.36-4c-4.48-6.1-10.85-11.17-16.93-13.52A8.06,8.06,0,0,0,107.46,150.61Z" fill="#5252ff" class="target-color"/><path d="M107.46,150.61c3.05,6.77,8.35,15.24,16.77,19.15A9.46,9.46,0,0,0,137,157.28a21.66,21.66,0,0,0-2.36-4c-4.48-6.1-10.85-11.17-16.93-13.52A8.06,8.06,0,0,0,107.46,150.61Z" fill="#fff" opacity="0.2"/><polyline points="326.78 144.27 298.89 144.27 298.89 106.71 326.25 106.71" opacity="0.08"/><path d="M104.38,133.16s-4.8-3.15-6.19.32,5.07,3.28,5.07,3.28Z" fill="#f4a28c"/><polyline points="147.83 91.33 216.17 131.08 261.83 75.03" fill="none" stroke="#a5a5a5" stroke-miterlimit="10"/><polyline points="321.28 135.62 293.39 135.62 293.39 98.06 335.51 98.06 335.51 123.17" fill="#ffd200"/><line x1="222.17" y1="133.22" x2="282.33" y2="170.11" fill="none" stroke="#a5a5a5" stroke-miterlimit="10"/><rect x="200" y="111.49" width="53" height="48.25" opacity="0.08"/><line x1="145.49" y1="98.5" x2="145.49" y2="127.56" fill="none" stroke="#a5a5a5" stroke-miterlimit="10"/><line x1="214.53" y1="182" x2="185.47" y2="182" fill="none" stroke="#a5a5a5" stroke-miterlimit="10"/><rect x="308.95" y="88.17" width="11" height="20" fill="#fff" opacity="0.34"/><rect x="191.67" y="103.44" width="53" height="48.25" fill="#5252ff" class="target-color"/><rect x="126.85" y="71.71" width="37.27" height="33.29" fill="#c9c9c9"/><polygon points="321.28 135.62 321.28 123.17 335.51 123.17 321.28 135.62" fill="#fff" opacity="0.34"/><rect x="268" y="149.26" width="38.67" height="34.07" fill="#c9c9c9"/><rect x="252.25" y="63.38" width="47.17" height="23.28" fill="#fff"/><rect x="158.67" y="167.67" width="34" height="28.67" fill="#fff"/><rect x="204.33" y="174.55" width="30.92" height="14.9" fill="#c9c9c9"/><rect x="210.08" y="67.58" width="30.92" height="14.9" fill="#c9c9c9"/><rect x="127.41" y="115.37" width="36.15" height="20.32" fill="#c9c9c9"/><circle cx="264.75" cy="75.03" r="5.67" fill="#c9c9c9"/><rect x="274.92" y="69.57" width="16.67" height="3.67" fill="#c9c9c9"/><rect x="274.92" y="75.76" width="16.67" height="3.67" fill="#c9c9c9" opacity="0.22"/><rect x="167.33" y="175.59" width="16.67" height="3.67" fill="#24285b" opacity="0.22"/><rect x="167.33" y="184.34" width="16.67" height="3.67" fill="#24285b" opacity="0.22"/><polygon points="130.98 97.22 137.64 86.93 145.49 96.11 152.99 82.93 160 97.42 160 101.07 130.98 101.07 130.98 97.22" fill="#fff" opacity="0.63"/><circle cx="145.22" cy="81.68" r="3.41" fill="#fff"/><polygon points="272.82 173.83 279.49 163.53 287.33 172.71 294.83 159.54 301.85 174.03 301.85 177.68 272.82 177.68 272.82 173.83" fill="#fff" opacity="0.63"/><circle cx="287.06" cy="158.29" r="3.41" fill="#fff"/><path d="M151.09,242.78s-7.6-2-9.28-9.1c0,0,11.75-2.43,12.14,9.71Z" fill="#5252ff" opacity="0.58" class="target-color"/><path d="M152,242s-5.34-8.36-.71-16.22c0,0,9,5.64,5,16.22Z" fill="#5252ff" opacity="0.73" class="target-color"/><path d="M153.38,242s2.77-8.87,11.23-10.58c0,0,1.62,5.74-5.44,10.58Z" fill="#5252ff" class="target-color"/><polygon points="147.88 241.84 149.46 252.37 159.15 252.37 160.54 241.84 147.88 241.84" fill="#24285b"/><circle cx="124.19" cy="52.83" r="3.42" fill="#24285b"/><circle cx="134.36" cy="52.83" r="3.42" fill="#5252ff" class="target-color"/><circle cx="143.94" cy="52.83" r="3.42" fill="#ffd200"/><polyline points="205.83 126.69 215.83 136.85 230.5 114.2" fill="none" stroke="#fff" stroke-miterlimit="10" stroke-width="6"/></svg>